# xmcd
#
# Track frame offsets:
#	150
#	16787
#	39488
#	52316
#	71181
#	85663
#	107179
#	123848
#	141601
#	153316
#	170697
#	197492
#
# Disc length: 2808 seconds
#
# Revision: 0
# Processed by: cddbd v1.4PL0 Copyright (c) Steve Scherf et al.
# Submitted via: dBpowerAMP V4.0
#
DISCID=a80af60c
DTITLE=So M - "Great Soul Hits"
DYEAR=1900
DGENRE=Rhythmic Soul
TTITLE0=It` Cool
TTITLE1=Only Your Love
TTITLE2=You  Little Trustmaker
TTITLE3=The Sha La Bandit
TTITLE4=Ms. Grace
TTITLE5=God`s Gonna Punish You
TTITLE6=goin Thru THe Motions
TTITLE7=If I Can`t Make You Smile
TTITLE8=Someway, Somehow
TTITLE9=Hyhpnotized
TTITLE10=Good Morning Dear Lord
TTITLE11=So Much In Love
EXTD=The Tymes " Great Soul Hits"\nit`s Cool \nOnly Your Love\nYou Little Trustmaker\nThe Sha La Bandit\nMs. Grace\nGod`s Gonna Punish You\nGoin thru the Motions\nIf I  Can`t Make You Smile\nSomeway, Sowmhow\nHypotnized\nGood Morning Dear Lord\nSo Much 
EXTD=In Love
EXTT0=
EXTT1=
EXTT2=
EXTT3=
EXTT4=
EXTT5=
EXTT6=
EXTT7=
EXTT8=
EXTT9=
EXTT10=
EXTT11=
PLAYORDER=
